<?xml version="1.0" encoding="UTF-8" standalone="no"?>
<!-- Created with Inkscape (http://www.inkscape.org/) -->

<svg
   xmlns:dc="http://purl.org/dc/elements/1.1/"
   xmlns:cc="http://creativecommons.org/ns#"
   xmlns:rdf="http://www.w3.org/1999/02/22-rdf-syntax-ns#"
   xmlns:svg="http://www.w3.org/2000/svg"
   xmlns="http://www.w3.org/2000/svg"
   xmlns:sodipodi="http://sodipodi.sourceforge.net/DTD/sodipodi-0.dtd"
   xmlns:inkscape="http://www.inkscape.org/namespaces/inkscape"
   width="200"
   height="100"
   id="svg2"
   version="1.1"
   inkscape:version="0.48.5 r10040"
   sodipodi:docname="logo.svg">
  <defs
     id="defs4" />
  <sodipodi:namedview
     id="base"
     pagecolor="#ffffff"
     bordercolor="#666666"
     borderopacity="1.0"
     inkscape:pageopacity="0.0"
     inkscape:pageshadow="2"
     inkscape:zoom="1"
     inkscape:cx="246.42857"
     inkscape:cy="81.82261"
     inkscape:document-units="px"
     inkscape:current-layer="layer1"
     showgrid="false"
     inkscape:window-width="1345"
     inkscape:window-height="746"
     inkscape:window-x="0"
     inkscape:window-y="0"
     inkscape:window-maximized="0" />
  <metadata
     id="metadata7">
    <rdf:RDF>
      <cc:Work
         rdf:about="">
        <dc:format>image/svg+xml</dc:format>
        <dc:type
           rdf:resource="http://purl.org/dc/dcmitype/StillImage" />
        <dc:title />
      </cc:Work>
    </rdf:RDF>
  </metadata>
  <g
     inkscape:groupmode="layer"
     id="layer3"
     inkscape:label="Layer"
     transform="translate(0,-952.36215)" />
  <g
     inkscape:label="Layer 1"
     inkscape:groupmode="layer"
     id="layer1"
     transform="translate(0,-952.36215)">
    <g
       transform="matrix(0.78151996,0,0,1.0074786,-43.654187,676.36372)"
       style="font-size:40px;font-style:normal;font-variant:normal;font-weight:normal;font-stretch:normal;line-height:125%;letter-spacing:0px;word-spacing:0px;fill:#000000;fill-opacity:1;stroke:none;font-family:Felisha;-inkscape-font-specification:Felisha"
       id="flowRoot2993">
      <path
         d="m 185.408,336.90941 c -0.864,0 -6.33601,18.72 -15.408,18.72 -2.592,0 -3.744,-2.16 -3.744,-5.328 0,-6.62399 9.216,-30.09601 11.52,-41.184 2.592,-12.09598 -2.16001,-22.464 -13.392,-22.464 -6.62399,0 -13.96801,6.04801 -19.584,14.112 -0.576,-8.06399 -5.47201,-14.112 -13.968,-14.112 -6.04799,0 -12.52801,4.89601 -17.856,11.808 0.72,-4.03199 -3.312,-5.472 -6.48,-5.472 -3.744,0 -8.064001,-1.43999 -9.36,7.92 -1.295999,9.36 -7.488009,34.27203 -16.272,60.912 -1.871998,5.472 -0.719994,7.488 5.472,7.488 5.039995,0 7.920002,0.72 10.368,-5.184 2.303998,-5.75999 6.192,-22.89601 9.504,-38.16 4.752,-15.40798 12.096,-22.32 16.56,-22.32 4.032,0 4.896,3.88801 3.888,8.928 -1.152,5.184 -9.36,35.85602 -11.376,47.664 -1.008,5.76 -0.71999,11.376 6.912,11.376 3.312,0 6.768,-2.592 7.488,-5.904 3.168,-12.52798 7.344,-28.36801 10.512,-40.752 4.608,-14.68798 11.808,-21.312 16.128,-21.312 4.176,0 4.896,4.17601 3.744,9.072 -1.584,6.912 -10.368,33.55201 -10.368,42.768 0,9.072 5.90401,16.128 14.544,16.128 13.24799,0 25.488,-18.72 25.488,-27.504 0,-4.31999 -2.304,-7.2 -4.32,-7.2"
         style="font-size:144px;fill:#ffffff"
         id="path3002"
         inkscape:connector-curvature="0" />
      <path
         d="m 216.20825,336.90941 c -0.72,0 -6.33601,18.72 -15.408,18.72 -2.448,0 -3.744,-2.16 -3.744,-5.328 0,-11.51998 9.216,-29.232 9.216,-33.984 0,-5.90399 -5.472,-8.352 -8.64,-8.352 -2.304,0 -4.32,2.30401 -5.76,5.472 -2.16,4.608 -9.936,25.77602 -9.936,41.904 0,9.072 4.46401,16.272 13.104,16.272 13.24799,0 25.632,-18.72 25.632,-27.504 0,-4.31999 -2.448,-7.2 -4.464,-7.2 m -10.944,-37.872 c 5.18399,0 10.368,-6.192 11.52,-11.376 1.584,-6.19199 -2.304,-12.09599 -7.2,-11.52 -5.03999,0.72 -10.08,5.18401 -11.52,11.52 -1.44,6.624 2.736,11.376 7.2,11.376"
         style="font-size:144px;fill:#ffffff"
         id="path3004"
         inkscape:connector-curvature="0" />
      <path
         d="m 249.299,336.90941 c -0.72,0 -7.48801,18.72 -16.56,18.72 -2.448,0 -4.896,-2.16 -4.896,-5.328 0,-4.46399 1.584,-11.088 3.744,-18.432 3.6,0.288 6.624,0.57601 8.352,0.864 2.304,0.288 2.88,-8.352 2.448,-10.224 -0.432,-1.29599 -1.584,-2.16 -2.88,-2.448 -0.576,-0.28799 -2.016,-0.432 -3.888,-0.576 4.32,-12.38398 8.784,-23.76 8.784,-26.208 0,-6.04799 -5.472,-8.496 -8.64,-8.496 -2.448,0 -4.464,2.30401 -5.76,5.472 -1.152,2.448 -6.048,14.83202 -10.224,29.088 -1.44,0.144 -2.736,0.28801 -3.888,0.432 -2.736,0.432 -3.888,1.29601 -4.032,5.76 0,2.016 0.144,6.48 1.44,6.336 1.008,-0.14399 2.016,-0.144 3.024,-0.288 -2.016,8.64 -3.6,17.13601 -3.6,23.76 0,9.072 5.61601,16.272 14.256,16.272 13.24799,0 26.784,-18.72 26.784,-27.504 0,-4.31999 -2.304,-7.2 -4.464,-7.2"
         style="font-size:144px;fill:#ffffff"
         id="path3006"
         inkscape:connector-curvature="0" />
      <path
         d="m 282.20525,336.90941 c -0.72,0 -7.48801,18.72 -16.56,18.72 -2.448,0 -4.896,-2.16 -4.896,-5.328 0,-4.46399 1.584,-11.088 3.744,-18.432 3.6,0.288 6.624,0.57601 8.352,0.864 2.304,0.288 2.88,-8.352 2.448,-10.224 -0.432,-1.29599 -1.584,-2.16 -2.88,-2.448 -0.576,-0.28799 -2.016,-0.432 -3.888,-0.576 4.32,-12.38398 8.784,-23.76 8.784,-26.208 0,-6.04799 -5.472,-8.496 -8.64,-8.496 -2.448,0 -4.464,2.30401 -5.76,5.472 -1.152,2.448 -6.048,14.83202 -10.224,29.088 -1.44,0.144 -2.736,0.28801 -3.888,0.432 -2.736,0.432 -3.888,1.29601 -4.032,5.76 0,2.016 0.144,6.48 1.44,6.336 1.008,-0.14399 2.016,-0.144 3.024,-0.288 -2.016,8.64 -3.6,17.13601 -3.6,23.76 0,9.072 5.61601,16.272 14.256,16.272 13.24799,0 26.784,-18.72 26.784,-27.504 0,-4.31999 -2.304,-7.2 -4.464,-7.2"
         style="font-size:144px;fill:#ffffff"
         id="path3008"
         inkscape:connector-curvature="0" />
    </g>
  </g>
</svg>
